<svg xmlns="http://www.w3.org/2000/svg" width="16" height="11" viewBox="0 0 16 11">
  <path fill="#FFF" d="M5.85355339,0.146446609 C6.02711974,0.320012961 6.04640489,0.589437362 5.91140884,0.784305503 L5.85355339,0.853553391 L1.707,5 L15.5,5 C15.7761424,5 16,5.22385763 16,5.5 C16,5.74545989 15.8231248,5.94960837 15.5898756,5.99194433 L15.5,6 L1.707,6 L5.85355339,10.1464466 C6.02711974,10.320013 6.04640489,10.5894374 5.91140884,10.7843055 L5.85355339,10.8535534 C5.67998704,11.0271197 5.41056264,11.0464049 5.2156945,10.9114088 L5.14644661,10.8535534 L0.146446609,5.85355339 L0.134588748,5.84128643 C0.122939203,5.82881868 0.111920253,5.81575424 0.101582734,5.80214392 L0.146446609,5.85355339 C0.119612338,5.82671912 0.0964658172,5.79759357 0.0770070472,5.76680652 C0.0700193356,5.75568247 0.0632933417,5.74404667 0.0570343394,5.73212724 C0.049749608,5.71827569 0.0433514722,5.70453886 0.0376105602,5.6905951 C0.0324084547,5.67802507 0.0275580952,5.66473685 0.0232684231,5.65119917 C0.0184480215,5.63583471 0.0143961337,5.62047425 0.0110856816,5.60498705 C0.00889169454,5.59495426 0.00700675977,5.5845638 0.00544806672,5.57406693 C0.00238749635,5.55323734 0.0006109983,5.53240118 0.000132376874,5.51154077 C4.22174726e-05,5.50757457 -2.77555756e-17,5.50379222 -2.77555756e-17,5.5 L0.000110355769,5.48946265 C0.000554364655,5.46826702 0.00233820308,5.44709424 0.00546187104,5.42608223 L-2.77555756e-17,5.5 C-2.77555756e-17,5.46390296 0.00382515486,5.42869933 0.0110922303,5.39477235 C0.0143961337,5.37952575 0.0184480215,5.36416529 0.023241345,5.34898836 C0.0275580952,5.33526315 0.0324084547,5.32197493 0.0377922373,5.30896344 C0.0433514722,5.29546114 0.049749608,5.28172431 0.0568049675,5.26824181 C0.0632933417,5.25595333 0.0700193356,5.24431753 0.0771880058,5.23298968 C0.0807331946,5.22729809 0.0845945651,5.22146362 0.0885911588,5.2156945 L0.101582734,5.19785608 C0.111920253,5.18424576 0.122939203,5.17118132 0.134588748,5.15871357 L0.146446609,5.14644661 L5.14644661,0.146446609 C5.34170876,-0.0488155365 5.65829124,-0.0488155365 5.85355339,0.146446609 Z"/>
</svg>
