<svg width="21" height="21" viewBox="0 0 21 21" fill="none" xmlns="http://www.w3.org/2000/svg">
<path fill-rule="evenodd" clip-rule="evenodd" d="M1.52783 9.76732C1.52783 5.21705 5.21656 1.52832 9.76683 1.52832C14.3171 1.52832 18.0058 5.21705 18.0058 9.76732C18.0058 14.3176 14.3171 18.0063 9.76683 18.0063C5.21656 18.0063 1.52783 14.3176 1.52783 9.76732ZM9.76683 0.0283203C4.38813 0.0283203 0.027832 4.38862 0.027832 9.76732C0.027832 15.146 4.38813 19.5063 9.76683 19.5063C12.0673 19.5063 14.1815 18.7087 15.8479 17.3749L19.0124 20.5314C19.3057 20.8239 19.7806 20.8233 20.0731 20.53C20.3656 20.2367 20.365 19.7619 20.0717 19.4693L16.9444 16.35C18.535 14.6166 19.5058 12.3053 19.5058 9.76732C19.5058 4.38862 15.1455 0.0283203 9.76683 0.0283203Z" fill="#292930"/>
</svg>
