<svg width="218" height="40" viewBox="0 0 218 40" fill="none" xmlns="http://www.w3.org/2000/svg">
<path d="M60.68 31.196C59.3173 31.196 58.0853 30.9627 56.984 30.496C55.9013 30.0293 55.0427 29.3573 54.408 28.48C53.7733 27.6027 53.4467 26.5667 53.428 25.372H57.628C57.684 26.1747 57.964 26.8093 58.468 27.276C58.9907 27.7427 59.7 27.976 60.596 27.976C61.5107 27.976 62.2293 27.7613 62.752 27.332C63.2747 26.884 63.536 26.3053 63.536 25.596C63.536 25.0173 63.3587 24.5413 63.004 24.168C62.6493 23.7947 62.2013 23.5053 61.66 23.3C61.1373 23.076 60.4093 22.8333 59.476 22.572C58.2067 22.1987 57.1707 21.8347 56.368 21.48C55.584 21.1067 54.9027 20.556 54.324 19.828C53.764 19.0813 53.484 18.092 53.484 16.86C53.484 15.7027 53.7733 14.6947 54.352 13.836C54.9307 12.9773 55.7427 12.324 56.788 11.876C57.8333 11.4093 59.028 11.176 60.372 11.176C62.388 11.176 64.0213 11.6707 65.272 12.66C66.5413 13.6307 67.2413 14.9933 67.372 16.748H63.06C63.0227 16.076 62.7333 15.5253 62.192 15.096C61.6693 14.648 60.9693 14.424 60.092 14.424C59.3267 14.424 58.7107 14.62 58.244 15.012C57.796 15.404 57.572 15.9733 57.572 16.72C57.572 17.2427 57.74 17.6813 58.076 18.036C58.4307 18.372 58.86 18.652 59.364 18.876C59.8867 19.0813 60.6147 19.324 61.548 19.604C62.8173 19.9773 63.8533 20.3507 64.656 20.724C65.4587 21.0973 66.1493 21.6573 66.728 22.404C67.3067 23.1507 67.596 24.1307 67.596 25.344C67.596 26.3893 67.3253 27.36 66.784 28.256C66.2427 29.152 65.4493 29.8707 64.404 30.412C63.3587 30.9347 62.1173 31.196 60.68 31.196ZM74.7185 18.708V26.212C74.7185 26.7347 74.8398 27.1173 75.0825 27.36C75.3438 27.584 75.7732 27.696 76.3705 27.696H78.1905V31H75.7265C72.4225 31 70.7705 29.3947 70.7705 26.184V18.708H68.9225V15.488H70.7705V11.652H74.7185V15.488H78.1905V18.708H74.7185ZM84.09 17.896C84.594 17.0747 85.2473 16.4307 86.05 15.964C86.8713 15.4973 87.8046 15.264 88.85 15.264V19.38H87.814C86.582 19.38 85.6486 19.6693 85.014 20.248C84.398 20.8267 84.09 21.8347 84.09 23.272V31H80.17V15.488H84.09V17.896ZM105.07 22.908C105.07 23.468 105.033 23.972 104.958 24.42H93.6183C93.7116 25.54 94.1036 26.4173 94.7943 27.052C95.4849 27.6867 96.3343 28.004 97.3423 28.004C98.7983 28.004 99.8343 27.3787 100.45 26.128H104.678C104.23 27.6213 103.372 28.8533 102.102 29.824C100.833 30.776 99.2743 31.252 97.4263 31.252C95.9329 31.252 94.5889 30.9253 93.3943 30.272C92.2183 29.6 91.2943 28.6573 90.6223 27.444C89.9689 26.2307 89.6423 24.8307 89.6423 23.244C89.6423 21.6387 89.9689 20.2293 90.6223 19.016C91.2756 17.8027 92.1903 16.8693 93.3663 16.216C94.5423 15.5627 95.8956 15.236 97.4263 15.236C98.9009 15.236 100.217 15.5533 101.374 16.188C102.55 16.8227 103.456 17.728 104.09 18.904C104.744 20.0613 105.07 21.396 105.07 22.908ZM101.01 21.788C100.992 20.78 100.628 19.9773 99.9183 19.38C99.2089 18.764 98.3409 18.456 97.3143 18.456C96.3436 18.456 95.5223 18.7547 94.8503 19.352C94.1969 19.9307 93.7956 20.7427 93.6463 21.788H101.01ZM106.084 23.188C106.084 21.62 106.392 20.2293 107.008 19.016C107.642 17.8027 108.492 16.8693 109.556 16.216C110.638 15.5627 111.842 15.236 113.168 15.236C114.325 15.236 115.333 15.4693 116.192 15.936C117.069 16.4027 117.769 16.9907 118.292 17.7V15.488H122.24V31H118.292V28.732C117.788 29.46 117.088 30.0667 116.192 30.552C115.314 31.0187 114.297 31.252 113.14 31.252C111.833 31.252 110.638 30.916 109.556 30.244C108.492 29.572 107.642 28.6293 107.008 27.416C106.392 26.184 106.084 24.7747 106.084 23.188ZM118.292 23.244C118.292 22.292 118.105 21.48 117.732 20.808C117.358 20.1173 116.854 19.5947 116.22 19.24C115.585 18.8667 114.904 18.68 114.176 18.68C113.448 18.68 112.776 18.8573 112.16 19.212C111.544 19.5667 111.04 20.0893 110.648 20.78C110.274 21.452 110.088 22.2547 110.088 23.188C110.088 24.1213 110.274 24.9427 110.648 25.652C111.04 26.3427 111.544 26.8747 112.16 27.248C112.794 27.6213 113.466 27.808 114.176 27.808C114.904 27.808 115.585 27.6307 116.22 27.276C116.854 26.9027 117.358 26.38 117.732 25.708C118.105 25.0173 118.292 24.196 118.292 23.244ZM144.492 15.264C146.396 15.264 147.927 15.852 149.084 17.028C150.26 18.1853 150.848 19.8093 150.848 21.9V31H146.928V22.432C146.928 21.2187 146.62 20.2947 146.004 19.66C145.388 19.0067 144.548 18.68 143.484 18.68C142.42 18.68 141.571 19.0067 140.936 19.66C140.32 20.2947 140.012 21.2187 140.012 22.432V31H136.092V22.432C136.092 21.2187 135.784 20.2947 135.168 19.66C134.552 19.0067 133.712 18.68 132.648 18.68C131.565 18.68 130.707 19.0067 130.072 19.66C129.456 20.2947 129.148 21.2187 129.148 22.432V31H125.228V15.488H129.148V17.364C129.652 16.7107 130.296 16.1973 131.08 15.824C131.883 15.4507 132.76 15.264 133.712 15.264C134.925 15.264 136.008 15.5253 136.96 16.048C137.912 16.552 138.649 17.28 139.172 18.232C139.676 17.336 140.404 16.6173 141.356 16.076C142.327 15.5347 143.372 15.264 144.492 15.264ZM157.648 27.892H164.088V31H153.728V11.456H157.648V27.892ZM172.628 31.252C171.134 31.252 169.79 30.9253 168.596 30.272C167.401 29.6 166.458 28.6573 165.768 27.444C165.096 26.2307 164.76 24.8307 164.76 23.244C164.76 21.6573 165.105 20.2573 165.796 19.044C166.505 17.8307 167.466 16.8973 168.68 16.244C169.893 15.572 171.246 15.236 172.74 15.236C174.233 15.236 175.586 15.572 176.8 16.244C178.013 16.8973 178.965 17.8307 179.656 19.044C180.365 20.2573 180.72 21.6573 180.72 23.244C180.72 24.8307 180.356 26.2307 179.628 27.444C178.918 28.6573 177.948 29.6 176.716 30.272C175.502 30.9253 174.14 31.252 172.628 31.252ZM172.628 27.836C173.337 27.836 174 27.668 174.616 27.332C175.25 26.9773 175.754 26.4547 176.128 25.764C176.501 25.0733 176.688 24.2333 176.688 23.244C176.688 21.7693 176.296 20.64 175.512 19.856C174.746 19.0533 173.804 18.652 172.684 18.652C171.564 18.652 170.621 19.0533 169.856 19.856C169.109 20.64 168.736 21.7693 168.736 23.244C168.736 24.7187 169.1 25.8573 169.828 26.66C170.574 27.444 171.508 27.836 172.628 27.836ZM181.747 23.188C181.747 21.62 182.055 20.2293 182.671 19.016C183.306 17.8027 184.155 16.8693 185.219 16.216C186.302 15.5627 187.506 15.236 188.831 15.236C189.988 15.236 190.996 15.4693 191.855 15.936C192.732 16.4027 193.432 16.9907 193.955 17.7V15.488H197.903V31H193.955V28.732C193.451 29.46 192.751 30.0667 191.855 30.552C190.978 31.0187 189.96 31.252 188.803 31.252C187.496 31.252 186.302 30.916 185.219 30.244C184.155 29.572 183.306 28.6293 182.671 27.416C182.055 26.184 181.747 24.7747 181.747 23.188ZM193.955 23.244C193.955 22.292 193.768 21.48 193.395 20.808C193.022 20.1173 192.518 19.5947 191.883 19.24C191.248 18.8667 190.567 18.68 189.839 18.68C189.111 18.68 188.439 18.8573 187.823 19.212C187.207 19.5667 186.703 20.0893 186.311 20.78C185.938 21.452 185.751 22.2547 185.751 23.188C185.751 24.1213 185.938 24.9427 186.311 25.652C186.703 26.3427 187.207 26.8747 187.823 27.248C188.458 27.6213 189.13 27.808 189.839 27.808C190.567 27.808 191.248 27.6307 191.883 27.276C192.518 26.9027 193.022 26.38 193.395 25.708C193.768 25.0173 193.955 24.196 193.955 23.244ZM209.488 15.264C211.336 15.264 212.829 15.852 213.968 17.028C215.106 18.1853 215.676 19.8093 215.676 21.9V31H211.756V22.432C211.756 21.2 211.448 20.2573 210.832 19.604C210.216 18.932 209.376 18.596 208.312 18.596C207.229 18.596 206.37 18.932 205.736 19.604C205.12 20.2573 204.812 21.2 204.812 22.432V31H200.892V15.488H204.812V17.42C205.334 16.748 205.997 16.2253 206.8 15.852C207.621 15.46 208.517 15.264 209.488 15.264Z" fill="#292930"/>
<rect width="40" height="40" rx="11.4286" fill="white"/>
<path d="M33.0991 23.5358C32.9771 23.5382 32.8578 23.442 32.7578 23.2606C32.6653 23.074 32.5691 22.9005 32.4694 22.7409C32.4041 22.6336 32.3476 22.4938 32.3031 22.3297C32.2586 22.1656 32.2269 21.9803 32.21 21.7844C32.193 21.5886 32.1911 21.3859 32.2043 21.1881C32.2176 20.9903 32.2456 20.8012 32.287 20.6316C32.3283 20.462 32.3821 20.3152 32.4453 20.1995C32.5085 20.0839 32.5798 20.0018 32.6552 19.9578C32.7306 19.9138 32.8087 19.9088 32.8848 19.9431C32.961 19.9774 33.0338 20.0504 33.0991 20.1578C33.2168 20.3412 33.3344 20.5552 33.4463 20.7692C33.509 20.8873 33.5621 21.0365 33.6026 21.2081C33.6431 21.3798 33.6701 21.5704 33.6821 21.7693C33.6941 21.9681 33.6909 22.1711 33.6727 22.3667C33.6544 22.5623 33.6215 22.7466 33.5757 22.9091C33.5209 23.1038 33.4492 23.2621 33.3663 23.371C33.2835 23.4799 33.1919 23.5364 33.0991 23.5358V23.5358Z" fill="#59C3FF"/>
<path d="M25.5257 25.8281C24.4857 25.8017 23.4775 24.8948 22.654 23.245C22.0371 21.9677 21.2715 21.2721 20.4826 21.2721C19.6937 21.2721 18.9281 21.9677 18.3112 23.245C17.4913 24.9172 16.479 25.8261 15.4366 25.8261C14.3941 25.8261 13.3819 24.9172 12.562 23.245C11.9666 22.0325 11.2405 21.3326 10.4847 21.2426C10.4074 21.2356 10.3315 21.1891 10.2611 21.1058C10.1907 21.0225 10.1274 20.904 10.0747 20.7571C10.0219 20.6102 9.98085 20.4378 9.95378 20.2496C9.9267 20.0615 9.91416 19.8613 9.91686 19.6606C9.91957 19.4599 9.93747 19.2625 9.96954 19.0798C10.0016 18.897 10.0472 18.7324 10.1038 18.5955C10.1603 18.4585 10.2267 18.3518 10.2992 18.2815C10.3716 18.2112 10.4486 18.1786 10.5259 18.1856C11.5144 18.3025 12.4654 19.2041 13.2505 20.7688C13.8665 22.0449 14.631 22.7398 15.4189 22.7398C16.2068 22.7398 16.9714 22.0449 17.5874 20.7688C18.4082 19.1016 19.4201 18.1959 20.462 18.1959C21.5039 18.1959 22.5159 19.1016 23.3366 20.7688C23.9531 22.0487 24.7188 22.7459 25.508 22.7459C26.2972 22.7459 27.063 22.0487 27.6794 20.7688C28.4892 19.1613 29.4734 18.2574 30.4923 18.1856C30.6483 18.1856 30.798 18.3467 30.9084 18.6333C31.0187 18.92 31.0807 19.3087 31.0807 19.7141C31.0807 20.1195 31.0187 20.5083 30.9084 20.7949C30.798 21.0816 30.6483 21.2426 30.4923 21.2426C29.7298 21.3257 28.996 22.0198 28.3915 23.2297C27.5689 24.875 26.5638 25.7863 25.5257 25.8281V25.8281Z" fill="#59C3FF"/>
<path d="M7.87197 23.5357C7.78061 23.5357 7.69051 23.4804 7.6088 23.3743C7.52709 23.2682 7.45602 23.1141 7.4012 22.9243C7.30756 22.6 7.26735 22.1923 7.28942 21.791C7.3115 21.3897 7.39404 21.0276 7.51889 20.7844C7.64835 20.5398 7.77193 20.3105 7.90139 20.1118C7.96862 20.0055 8.04326 19.9345 8.12105 19.9031C8.19884 19.8716 8.27825 19.8802 8.35475 19.9285C8.43125 19.9768 8.50334 20.0637 8.56691 20.1843C8.63048 20.3049 8.68427 20.4569 8.72523 20.6315C8.76619 20.8062 8.7935 21 8.80561 21.2021C8.81772 21.4041 8.81439 21.6104 8.79582 21.8091C8.77724 22.0078 8.74377 22.1951 8.69733 22.3602C8.65089 22.5253 8.59239 22.665 8.52516 22.7714L8.22504 23.3064C8.11963 23.4778 7.99603 23.5581 7.87197 23.5357V23.5357Z" fill="#59C3FF"/>
<path d="M25.5374 35.0003C24.826 34.9986 24.1247 34.5641 23.4896 33.7316C23.42 33.6433 23.3579 33.5202 23.3066 33.3695C23.2554 33.2188 23.2161 33.0433 23.1909 32.8531C23.1658 32.6629 23.1553 32.4617 23.1601 32.261C23.1649 32.0603 23.1849 31.8641 23.2189 31.6834C23.2529 31.5028 23.3003 31.3413 23.3583 31.2082C23.4163 31.0751 23.4839 30.973 23.5571 30.9077C23.6303 30.8424 23.7078 30.8152 23.7851 30.8277C23.8623 30.8401 23.9379 30.892 24.0074 30.9803C24.5955 31.7465 25.256 32.0573 25.9101 31.8758C26.5643 31.6942 27.1846 31.0279 27.6971 29.9562C27.7989 29.7578 27.9228 29.6505 28.0501 29.6505C28.2062 29.6505 28.3559 29.8116 28.4662 30.0982C28.5766 30.3848 28.6386 30.7736 28.6386 31.179C28.6392 31.4428 28.6135 31.7025 28.564 31.9329C28.5145 32.1632 28.4429 32.3564 28.3561 32.4935C27.544 34.0909 26.556 34.9695 25.5374 35.0003V35.0003Z" fill="#59C3FF"/>
<path d="M15.4395 34.9999C14.3964 34.9648 13.3861 34.0472 12.5619 32.3862C12.5001 32.2658 12.448 32.1149 12.4086 31.9422C12.3693 31.7694 12.3434 31.5783 12.3325 31.3796C12.3215 31.1809 12.3258 30.9785 12.3449 30.7841C12.3641 30.5896 12.3979 30.4069 12.4442 30.2463C12.4906 30.0857 12.5487 29.9504 12.6152 29.8482C12.6817 29.7459 12.7553 29.6787 12.8318 29.6503C12.9083 29.6219 12.9862 29.6329 13.061 29.6827C13.1359 29.7325 13.2062 29.8202 13.2681 29.9406C13.8841 31.2167 14.6486 31.9116 15.4365 31.9116C16.2244 31.9116 16.989 31.2167 17.605 29.9406L17.6638 29.8489C18.2579 28.6463 18.9575 27.845 19.6999 27.5169C20.4424 27.1888 21.2047 27.3441 21.9184 27.9688C22.0667 28.0986 22.189 28.376 22.2585 28.74C22.3281 29.1041 22.3391 29.5249 22.2891 29.91C22.2392 30.2951 22.1324 30.613 21.9922 30.7935C21.8521 30.9741 21.69 31.0027 21.5418 30.873C20.998 30.4058 20.4177 30.3009 19.8543 30.5679C19.2908 30.835 18.7622 31.4655 18.317 32.4015L18.2582 32.4932C17.4463 34.0916 16.4582 34.9703 15.4395 34.9999Z" fill="#59C3FF"/>
<path d="M25.5139 16.6574C24.4966 16.6332 23.5098 15.7537 22.7011 14.1507L22.6481 14.059C22.0529 12.7988 21.3116 12.0968 20.5438 12.0663C19.7761 12.0358 19.0268 12.6786 18.4171 13.8908C18.3538 14.0081 18.2823 14.0917 18.2065 14.1368C18.1308 14.1818 18.0523 14.1875 17.9757 14.1534C17.8991 14.1193 17.8259 14.0461 17.7603 13.9381C17.6946 13.83 17.6378 13.6893 17.5933 13.524C17.5039 13.1933 17.4686 12.7841 17.4951 12.386C17.5215 11.9879 17.6076 11.6332 17.7345 11.3994C18.5387 9.82168 19.521 8.97831 20.5288 9.00042C21.5366 9.02254 22.5133 9.90889 23.3072 11.5217L23.3601 11.6134C24.0453 13.0347 24.9095 13.743 25.7846 13.6004H26.0376H26.2083H26.2848L26.479 13.4629C26.9277 13.1259 27.3486 12.5766 27.7206 11.8427L27.7794 11.751C28.5931 10.1087 29.5942 9.21718 30.6246 9.21718C31.6551 9.21718 32.6562 10.1087 33.4698 11.751L33.5051 11.8274C33.8933 12.6166 34.3419 13.1816 34.8209 13.4847C35.2998 13.7878 35.7982 13.8221 36.2826 13.5852C36.3599 13.545 36.4395 13.5448 36.5168 13.5845C36.5941 13.6242 36.6676 13.7031 36.7332 13.8167C36.7988 13.9302 36.8551 14.0762 36.899 14.2463C36.9428 14.4164 36.9733 14.6072 36.9888 14.8079C37.0042 15.0087 37.0043 15.2153 36.989 15.4161C36.9737 15.617 36.9434 15.808 36.8997 15.9783C36.8559 16.1486 36.7997 16.2949 36.7343 16.4088C36.6688 16.5227 36.5953 16.602 36.518 16.6421C35.8656 16.9572 35.1948 16.9103 34.5498 16.5046C33.9048 16.099 33.3002 15.3436 32.7754 14.2883L32.7401 14.2118C32.1274 12.9496 31.3684 12.2627 30.5864 12.2627C29.8044 12.2627 29.0453 12.9496 28.4326 14.2118L28.3738 14.3035C27.9085 15.1982 27.3868 15.8758 26.832 16.3059C26.7451 16.3798 26.6567 16.4411 26.5672 16.4893H26.4848L26.1847 16.6269L25.8611 16.7186L25.5139 16.6574Z" fill="#59C3FF"/>
<path d="M15.4395 16.6566H15.1217H14.8393C14.7143 16.6161 14.5905 16.5549 14.4685 16.4732L14.1567 16.2592C13.5803 15.8202 13.0398 15.1105 12.5619 14.1651C11.9455 12.8917 11.1811 12.1984 10.3935 12.1984C9.60584 12.1984 8.84145 12.8917 8.22501 14.1651C7.69876 15.2107 7.09283 15.9532 6.44752 16.3433C5.80221 16.7333 5.13232 16.762 4.48242 16.4273C4.32635 16.3462 4.18908 16.1074 4.10079 15.7635C4.01251 15.4195 3.98044 14.9985 4.01166 14.5931C4.04287 14.1877 4.1348 13.8312 4.26723 13.6018C4.39966 13.3725 4.56174 13.2892 4.7178 13.3703C5.2095 13.6286 5.71698 13.6052 6.20483 13.3016C6.69267 12.998 7.14915 12.4216 7.5424 11.6126C8.36608 9.96286 9.3769 9.06815 10.417 9.06815C11.4571 9.06815 12.4679 9.96286 13.2916 11.6126C13.6601 12.3432 14.0769 12.8923 14.5215 13.2328L14.7392 13.3856L14.9805 13.5079L15.1923 13.5996C15.4115 13.653 15.6322 13.653 15.8514 13.5996C15.9287 13.5775 16.0069 13.5952 16.0815 13.6516C16.1562 13.708 16.2258 13.8021 16.2865 13.9284C16.3471 14.0547 16.3976 14.2108 16.435 14.3878C16.4725 14.5648 16.4961 14.7592 16.5046 14.96C16.5131 15.1607 16.5063 15.3638 16.4846 15.5577C16.4629 15.7516 16.4266 15.9325 16.378 16.09C16.3294 16.2476 16.2693 16.3787 16.2011 16.4759C16.133 16.5731 16.0581 16.6345 15.9809 16.6566C15.8006 16.6863 15.6198 16.6863 15.4395 16.6566V16.6566Z" fill="#59C3FF"/>
</svg>
